<mxfile host="Electron" agent="Mozilla/5.0 (Windows NT 10.0; Win64; x64) AppleWebKit/537.36 (KHTML, like Gecko) draw.io/26.0.9 Chrome/128.0.6613.186 Electron/32.2.5 Safari/537.36" version="26.0.9">
  <diagram name="Page-1" id="e7e014a7-5840-1c2e-5031-d8a46d1fe8dd">
    <mxGraphModel dx="956" dy="710" grid="1" gridSize="10" guides="1" tooltips="1" connect="1" arrows="1" fold="1" page="1" pageScale="1" pageWidth="1169" pageHeight="826" background="none" math="0" shadow="0">
      <root>
        <mxCell id="0" />
        <mxCell id="1" parent="0" />
        <mxCell id="kijJJAyMLJ-70Bdnw-Ao-41" value="" style="ellipse;html=1;shape=startState;fillColor=#000000;strokeColor=#000000;" vertex="1" parent="1">
          <mxGeometry x="570" y="60" width="30" height="30" as="geometry" />
        </mxCell>
        <mxCell id="kijJJAyMLJ-70Bdnw-Ao-42" value="" style="edgeStyle=orthogonalEdgeStyle;html=1;verticalAlign=bottom;endArrow=open;endSize=8;strokeColor=#000000;rounded=0;" edge="1" source="kijJJAyMLJ-70Bdnw-Ao-41" parent="1">
          <mxGeometry relative="1" as="geometry">
            <mxPoint x="585" y="120" as="targetPoint" />
          </mxGeometry>
        </mxCell>
        <mxCell id="kijJJAyMLJ-70Bdnw-Ao-45" style="edgeStyle=orthogonalEdgeStyle;rounded=0;orthogonalLoop=1;jettySize=auto;html=1;exitX=0.5;exitY=1;exitDx=0;exitDy=0;" edge="1" parent="1" source="kijJJAyMLJ-70Bdnw-Ao-43" target="kijJJAyMLJ-70Bdnw-Ao-44">
          <mxGeometry relative="1" as="geometry" />
        </mxCell>
        <mxCell id="kijJJAyMLJ-70Bdnw-Ao-43" value="Navigate user to deck profile" style="whiteSpace=wrap;html=1;" vertex="1" parent="1">
          <mxGeometry x="525" y="120" width="120" height="40" as="geometry" />
        </mxCell>
        <mxCell id="kijJJAyMLJ-70Bdnw-Ao-48" style="edgeStyle=orthogonalEdgeStyle;rounded=0;orthogonalLoop=1;jettySize=auto;html=1;exitX=0;exitY=0.5;exitDx=0;exitDy=0;entryX=1;entryY=0.5;entryDx=0;entryDy=0;" edge="1" parent="1" source="kijJJAyMLJ-70Bdnw-Ao-44" target="kijJJAyMLJ-70Bdnw-Ao-47">
          <mxGeometry relative="1" as="geometry" />
        </mxCell>
        <mxCell id="kijJJAyMLJ-70Bdnw-Ao-49" value="True" style="edgeLabel;html=1;align=center;verticalAlign=middle;resizable=0;points=[];" vertex="1" connectable="0" parent="kijJJAyMLJ-70Bdnw-Ao-48">
          <mxGeometry x="-0.2444" y="-1" relative="1" as="geometry">
            <mxPoint as="offset" />
          </mxGeometry>
        </mxCell>
        <mxCell id="kijJJAyMLJ-70Bdnw-Ao-53" style="edgeStyle=orthogonalEdgeStyle;rounded=0;orthogonalLoop=1;jettySize=auto;html=1;exitX=0.5;exitY=1;exitDx=0;exitDy=0;" edge="1" parent="1" source="kijJJAyMLJ-70Bdnw-Ao-44">
          <mxGeometry relative="1" as="geometry">
            <mxPoint x="585" y="260" as="targetPoint" />
          </mxGeometry>
        </mxCell>
        <mxCell id="kijJJAyMLJ-70Bdnw-Ao-54" value="False" style="edgeLabel;html=1;align=center;verticalAlign=middle;resizable=0;points=[];" vertex="1" connectable="0" parent="kijJJAyMLJ-70Bdnw-Ao-53">
          <mxGeometry x="-0.5062" relative="1" as="geometry">
            <mxPoint as="offset" />
          </mxGeometry>
        </mxCell>
        <mxCell id="kijJJAyMLJ-70Bdnw-Ao-44" value="" style="rhombus;whiteSpace=wrap;html=1;" vertex="1" parent="1">
          <mxGeometry x="562.5" y="190" width="45" height="30" as="geometry" />
        </mxCell>
        <mxCell id="kijJJAyMLJ-70Bdnw-Ao-46" value="User owns&lt;div&gt;deck?&lt;/div&gt;" style="text;html=1;align=center;verticalAlign=middle;resizable=0;points=[];autosize=1;strokeColor=none;fillColor=none;" vertex="1" parent="1">
          <mxGeometry x="585" y="163" width="80" height="40" as="geometry" />
        </mxCell>
        <mxCell id="kijJJAyMLJ-70Bdnw-Ao-52" style="edgeStyle=orthogonalEdgeStyle;rounded=0;orthogonalLoop=1;jettySize=auto;html=1;exitX=0.5;exitY=1;exitDx=0;exitDy=0;" edge="1" parent="1" source="kijJJAyMLJ-70Bdnw-Ao-47" target="kijJJAyMLJ-70Bdnw-Ao-50">
          <mxGeometry relative="1" as="geometry" />
        </mxCell>
        <mxCell id="kijJJAyMLJ-70Bdnw-Ao-47" value="Show option to&lt;div&gt;delete/edit deck&lt;/div&gt;" style="rounded=0;whiteSpace=wrap;html=1;" vertex="1" parent="1">
          <mxGeometry x="410" y="187.5" width="100" height="35" as="geometry" />
        </mxCell>
        <mxCell id="kijJJAyMLJ-70Bdnw-Ao-57" style="edgeStyle=orthogonalEdgeStyle;rounded=0;orthogonalLoop=1;jettySize=auto;html=1;exitX=0;exitY=0.5;exitDx=0;exitDy=0;entryX=1;entryY=0.5;entryDx=0;entryDy=0;" edge="1" parent="1" source="kijJJAyMLJ-70Bdnw-Ao-50" target="kijJJAyMLJ-70Bdnw-Ao-56">
          <mxGeometry relative="1" as="geometry" />
        </mxCell>
        <mxCell id="kijJJAyMLJ-70Bdnw-Ao-58" value="True" style="edgeLabel;html=1;align=center;verticalAlign=middle;resizable=0;points=[];" vertex="1" connectable="0" parent="kijJJAyMLJ-70Bdnw-Ao-57">
          <mxGeometry x="-0.0159" y="1" relative="1" as="geometry">
            <mxPoint as="offset" />
          </mxGeometry>
        </mxCell>
        <mxCell id="kijJJAyMLJ-70Bdnw-Ao-61" style="edgeStyle=orthogonalEdgeStyle;rounded=0;orthogonalLoop=1;jettySize=auto;html=1;exitX=0.5;exitY=1;exitDx=0;exitDy=0;" edge="1" parent="1" source="kijJJAyMLJ-70Bdnw-Ao-50">
          <mxGeometry relative="1" as="geometry">
            <mxPoint x="585" y="350" as="targetPoint" />
          </mxGeometry>
        </mxCell>
        <mxCell id="kijJJAyMLJ-70Bdnw-Ao-62" value="False" style="edgeLabel;html=1;align=center;verticalAlign=middle;resizable=0;points=[];" vertex="1" connectable="0" parent="kijJJAyMLJ-70Bdnw-Ao-61">
          <mxGeometry x="-0.4456" relative="1" as="geometry">
            <mxPoint as="offset" />
          </mxGeometry>
        </mxCell>
        <mxCell id="kijJJAyMLJ-70Bdnw-Ao-50" value="" style="rhombus;whiteSpace=wrap;html=1;" vertex="1" parent="1">
          <mxGeometry x="562.5" y="270" width="45" height="30" as="geometry" />
        </mxCell>
        <mxCell id="kijJJAyMLJ-70Bdnw-Ao-55" value="User has deck in&lt;div&gt;their study list?&lt;/div&gt;" style="text;html=1;align=center;verticalAlign=middle;resizable=0;points=[];autosize=1;strokeColor=none;fillColor=none;" vertex="1" parent="1">
          <mxGeometry x="600" y="260" width="110" height="40" as="geometry" />
        </mxCell>
        <mxCell id="kijJJAyMLJ-70Bdnw-Ao-60" style="edgeStyle=orthogonalEdgeStyle;rounded=0;orthogonalLoop=1;jettySize=auto;html=1;exitX=0.5;exitY=1;exitDx=0;exitDy=0;entryX=0.5;entryY=0;entryDx=0;entryDy=0;" edge="1" parent="1" source="kijJJAyMLJ-70Bdnw-Ao-56" target="kijJJAyMLJ-70Bdnw-Ao-59">
          <mxGeometry relative="1" as="geometry" />
        </mxCell>
        <mxCell id="kijJJAyMLJ-70Bdnw-Ao-56" value="Show option to remove from study list" style="rounded=0;whiteSpace=wrap;html=1;" vertex="1" parent="1">
          <mxGeometry x="410" y="260" width="100" height="50" as="geometry" />
        </mxCell>
        <mxCell id="kijJJAyMLJ-70Bdnw-Ao-65" style="edgeStyle=orthogonalEdgeStyle;rounded=0;orthogonalLoop=1;jettySize=auto;html=1;exitX=0.5;exitY=1;exitDx=0;exitDy=0;" edge="1" parent="1" source="kijJJAyMLJ-70Bdnw-Ao-59" target="kijJJAyMLJ-70Bdnw-Ao-64">
          <mxGeometry relative="1" as="geometry" />
        </mxCell>
        <mxCell id="kijJJAyMLJ-70Bdnw-Ao-66" value="Edit Deck" style="edgeLabel;html=1;align=center;verticalAlign=middle;resizable=0;points=[];rotation=90;" vertex="1" connectable="0" parent="kijJJAyMLJ-70Bdnw-Ao-65">
          <mxGeometry x="-0.2126" y="-4" relative="1" as="geometry">
            <mxPoint x="5" y="1" as="offset" />
          </mxGeometry>
        </mxCell>
        <mxCell id="kijJJAyMLJ-70Bdnw-Ao-68" style="edgeStyle=orthogonalEdgeStyle;rounded=0;orthogonalLoop=1;jettySize=auto;html=1;exitX=0;exitY=0;exitDx=0;exitDy=0;entryX=0;entryY=0.5;entryDx=0;entryDy=0;" edge="1" parent="1" source="kijJJAyMLJ-70Bdnw-Ao-59" target="kijJJAyMLJ-70Bdnw-Ao-56">
          <mxGeometry relative="1" as="geometry">
            <Array as="points">
              <mxPoint x="573" y="340" />
              <mxPoint x="390" y="340" />
              <mxPoint x="390" y="285" />
            </Array>
          </mxGeometry>
        </mxCell>
        <mxCell id="kijJJAyMLJ-70Bdnw-Ao-69" value="Add to Study List" style="edgeLabel;html=1;align=center;verticalAlign=middle;resizable=0;points=[];" vertex="1" connectable="0" parent="kijJJAyMLJ-70Bdnw-Ao-68">
          <mxGeometry x="-0.4117" y="-1" relative="1" as="geometry">
            <mxPoint as="offset" />
          </mxGeometry>
        </mxCell>
        <mxCell id="kijJJAyMLJ-70Bdnw-Ao-70" style="edgeStyle=orthogonalEdgeStyle;rounded=0;orthogonalLoop=1;jettySize=auto;html=1;exitX=0;exitY=0.5;exitDx=0;exitDy=0;entryX=1;entryY=0.5;entryDx=0;entryDy=0;" edge="1" parent="1" source="kijJJAyMLJ-70Bdnw-Ao-59" target="kijJJAyMLJ-70Bdnw-Ao-67">
          <mxGeometry relative="1" as="geometry">
            <Array as="points">
              <mxPoint x="490" y="365" />
              <mxPoint x="490" y="388" />
            </Array>
          </mxGeometry>
        </mxCell>
        <mxCell id="kijJJAyMLJ-70Bdnw-Ao-71" value="Remove from&lt;div&gt;Study List&lt;/div&gt;" style="edgeLabel;html=1;align=center;verticalAlign=middle;resizable=0;points=[];" vertex="1" connectable="0" parent="kijJJAyMLJ-70Bdnw-Ao-70">
          <mxGeometry x="-0.3159" y="3" relative="1" as="geometry">
            <mxPoint as="offset" />
          </mxGeometry>
        </mxCell>
        <mxCell id="kijJJAyMLJ-70Bdnw-Ao-74" style="edgeStyle=orthogonalEdgeStyle;rounded=0;orthogonalLoop=1;jettySize=auto;html=1;exitX=0;exitY=1;exitDx=0;exitDy=0;entryX=1;entryY=0.5;entryDx=0;entryDy=0;" edge="1" parent="1" source="kijJJAyMLJ-70Bdnw-Ao-59" target="kijJJAyMLJ-70Bdnw-Ao-73">
          <mxGeometry relative="1" as="geometry">
            <Array as="points">
              <mxPoint x="560" y="373" />
              <mxPoint x="560" y="480" />
            </Array>
          </mxGeometry>
        </mxCell>
        <mxCell id="kijJJAyMLJ-70Bdnw-Ao-75" value="Study Deck" style="edgeLabel;html=1;align=center;verticalAlign=middle;resizable=0;points=[];rotation=90;" vertex="1" connectable="0" parent="kijJJAyMLJ-70Bdnw-Ao-74">
          <mxGeometry x="-0.5542" y="-1" relative="1" as="geometry">
            <mxPoint x="3" y="16" as="offset" />
          </mxGeometry>
        </mxCell>
        <mxCell id="kijJJAyMLJ-70Bdnw-Ao-59" value="" style="rhombus;whiteSpace=wrap;html=1;" vertex="1" parent="1">
          <mxGeometry x="562" y="350" width="45" height="30" as="geometry" />
        </mxCell>
        <mxCell id="kijJJAyMLJ-70Bdnw-Ao-63" value="User Selects?" style="text;html=1;align=center;verticalAlign=middle;resizable=0;points=[];autosize=1;strokeColor=none;fillColor=none;" vertex="1" parent="1">
          <mxGeometry x="600" y="350" width="100" height="30" as="geometry" />
        </mxCell>
        <mxCell id="kijJJAyMLJ-70Bdnw-Ao-80" style="edgeStyle=orthogonalEdgeStyle;rounded=0;orthogonalLoop=1;jettySize=auto;html=1;exitX=0;exitY=0.5;exitDx=0;exitDy=0;entryX=1;entryY=0.5;entryDx=0;entryDy=0;" edge="1" parent="1" source="kijJJAyMLJ-70Bdnw-Ao-64" target="kijJJAyMLJ-70Bdnw-Ao-79">
          <mxGeometry relative="1" as="geometry" />
        </mxCell>
        <mxCell id="kijJJAyMLJ-70Bdnw-Ao-64" value="Navigate User to Deck Editor" style="rounded=0;whiteSpace=wrap;html=1;" vertex="1" parent="1">
          <mxGeometry x="525" y="530" width="120" height="60" as="geometry" />
        </mxCell>
        <mxCell id="kijJJAyMLJ-70Bdnw-Ao-72" style="edgeStyle=orthogonalEdgeStyle;rounded=0;orthogonalLoop=1;jettySize=auto;html=1;exitX=0.5;exitY=0;exitDx=0;exitDy=0;entryX=0.5;entryY=0;entryDx=0;entryDy=0;" edge="1" parent="1" source="kijJJAyMLJ-70Bdnw-Ao-67" target="kijJJAyMLJ-70Bdnw-Ao-59">
          <mxGeometry relative="1" as="geometry" />
        </mxCell>
        <mxCell id="kijJJAyMLJ-70Bdnw-Ao-67" value="Show option to add to study list" style="rounded=0;whiteSpace=wrap;html=1;" vertex="1" parent="1">
          <mxGeometry x="370" y="363" width="100" height="50" as="geometry" />
        </mxCell>
        <mxCell id="kijJJAyMLJ-70Bdnw-Ao-77" style="edgeStyle=orthogonalEdgeStyle;rounded=0;orthogonalLoop=1;jettySize=auto;html=1;exitX=0;exitY=0.5;exitDx=0;exitDy=0;entryX=0.5;entryY=1;entryDx=0;entryDy=0;" edge="1" parent="1" source="kijJJAyMLJ-70Bdnw-Ao-73" target="kijJJAyMLJ-70Bdnw-Ao-76">
          <mxGeometry relative="1" as="geometry" />
        </mxCell>
        <mxCell id="kijJJAyMLJ-70Bdnw-Ao-73" value="Navigate to Study Page" style="rounded=0;whiteSpace=wrap;html=1;" vertex="1" parent="1">
          <mxGeometry x="360" y="460" width="120" height="40" as="geometry" />
        </mxCell>
        <mxCell id="kijJJAyMLJ-70Bdnw-Ao-78" style="edgeStyle=orthogonalEdgeStyle;rounded=0;orthogonalLoop=1;jettySize=auto;html=1;exitX=0.5;exitY=0;exitDx=0;exitDy=0;entryX=0;entryY=0.5;entryDx=0;entryDy=0;" edge="1" parent="1" source="kijJJAyMLJ-70Bdnw-Ao-76" target="kijJJAyMLJ-70Bdnw-Ao-43">
          <mxGeometry relative="1" as="geometry" />
        </mxCell>
        <mxCell id="kijJJAyMLJ-70Bdnw-Ao-76" value="User selects &quot;DONE&quot;" style="rounded=1;whiteSpace=wrap;html=1;" vertex="1" parent="1">
          <mxGeometry x="220" y="400" width="120" height="30" as="geometry" />
        </mxCell>
        <mxCell id="kijJJAyMLJ-70Bdnw-Ao-81" style="edgeStyle=orthogonalEdgeStyle;rounded=0;orthogonalLoop=1;jettySize=auto;html=1;exitX=0;exitY=0.5;exitDx=0;exitDy=0;entryX=0;entryY=0.5;entryDx=0;entryDy=0;" edge="1" parent="1" source="kijJJAyMLJ-70Bdnw-Ao-79" target="kijJJAyMLJ-70Bdnw-Ao-43">
          <mxGeometry relative="1" as="geometry">
            <Array as="points">
              <mxPoint x="200" y="560" />
              <mxPoint x="200" y="140" />
            </Array>
          </mxGeometry>
        </mxCell>
        <mxCell id="kijJJAyMLJ-70Bdnw-Ao-79" value="User saves deck" style="rounded=1;whiteSpace=wrap;html=1;" vertex="1" parent="1">
          <mxGeometry x="360" y="540" width="120" height="40" as="geometry" />
        </mxCell>
        <mxCell id="kijJJAyMLJ-70Bdnw-Ao-98" style="edgeStyle=orthogonalEdgeStyle;rounded=0;orthogonalLoop=1;jettySize=auto;html=1;exitX=1;exitY=0.5;exitDx=0;exitDy=0;entryX=0;entryY=0.5;entryDx=0;entryDy=0;" edge="1" parent="1" source="kijJJAyMLJ-70Bdnw-Ao-82" target="kijJJAyMLJ-70Bdnw-Ao-86">
          <mxGeometry relative="1" as="geometry" />
        </mxCell>
        <mxCell id="kijJJAyMLJ-70Bdnw-Ao-82" value="Navigate user to quiz" style="rounded=0;whiteSpace=wrap;html=1;" vertex="1" parent="1">
          <mxGeometry x="685" y="530" width="120" height="60" as="geometry" />
        </mxCell>
        <mxCell id="kijJJAyMLJ-70Bdnw-Ao-84" style="edgeStyle=orthogonalEdgeStyle;rounded=0;orthogonalLoop=1;jettySize=auto;html=1;exitX=1;exitY=1;exitDx=0;exitDy=0;entryX=0.249;entryY=-0.027;entryDx=0;entryDy=0;entryPerimeter=0;" edge="1" parent="1" source="kijJJAyMLJ-70Bdnw-Ao-59" target="kijJJAyMLJ-70Bdnw-Ao-82">
          <mxGeometry relative="1" as="geometry">
            <Array as="points">
              <mxPoint x="630" y="372" />
              <mxPoint x="630" y="480" />
              <mxPoint x="715" y="480" />
            </Array>
          </mxGeometry>
        </mxCell>
        <mxCell id="kijJJAyMLJ-70Bdnw-Ao-85" value="Take Quiz" style="edgeLabel;html=1;align=center;verticalAlign=middle;resizable=0;points=[];rotation=90;" vertex="1" connectable="0" parent="kijJJAyMLJ-70Bdnw-Ao-84">
          <mxGeometry x="-0.8015" y="-5" relative="1" as="geometry">
            <mxPoint x="12" y="33" as="offset" />
          </mxGeometry>
        </mxCell>
        <mxCell id="kijJJAyMLJ-70Bdnw-Ao-90" style="edgeStyle=orthogonalEdgeStyle;rounded=0;orthogonalLoop=1;jettySize=auto;html=1;exitX=0.5;exitY=0;exitDx=0;exitDy=0;entryX=0.5;entryY=1;entryDx=0;entryDy=0;" edge="1" parent="1" source="kijJJAyMLJ-70Bdnw-Ao-86" target="kijJJAyMLJ-70Bdnw-Ao-87">
          <mxGeometry relative="1" as="geometry" />
        </mxCell>
        <mxCell id="kijJJAyMLJ-70Bdnw-Ao-86" value="User clicks &quot;DONE&quot;" style="rounded=1;whiteSpace=wrap;html=1;" vertex="1" parent="1">
          <mxGeometry x="840" y="530" width="120" height="60" as="geometry" />
        </mxCell>
        <mxCell id="kijJJAyMLJ-70Bdnw-Ao-91" style="edgeStyle=orthogonalEdgeStyle;rounded=0;orthogonalLoop=1;jettySize=auto;html=1;exitX=0.5;exitY=0;exitDx=0;exitDy=0;" edge="1" parent="1" source="kijJJAyMLJ-70Bdnw-Ao-87" target="kijJJAyMLJ-70Bdnw-Ao-92">
          <mxGeometry relative="1" as="geometry">
            <mxPoint x="900.1904761904761" y="410" as="targetPoint" />
          </mxGeometry>
        </mxCell>
        <mxCell id="kijJJAyMLJ-70Bdnw-Ao-87" value="" style="rhombus;whiteSpace=wrap;html=1;" vertex="1" parent="1">
          <mxGeometry x="877.5" y="450" width="45" height="30" as="geometry" />
        </mxCell>
        <mxCell id="kijJJAyMLJ-70Bdnw-Ao-89" value="Answered all&lt;div&gt;questions?&lt;/div&gt;" style="text;html=1;align=center;verticalAlign=middle;resizable=0;points=[];autosize=1;strokeColor=none;fillColor=none;" vertex="1" parent="1">
          <mxGeometry x="787.5" y="450" width="90" height="40" as="geometry" />
        </mxCell>
        <mxCell id="kijJJAyMLJ-70Bdnw-Ao-106" style="edgeStyle=orthogonalEdgeStyle;rounded=0;orthogonalLoop=1;jettySize=auto;html=1;exitX=0.5;exitY=0;exitDx=0;exitDy=0;entryX=0.5;entryY=1;entryDx=0;entryDy=0;" edge="1" parent="1" source="kijJJAyMLJ-70Bdnw-Ao-92" target="kijJJAyMLJ-70Bdnw-Ao-103">
          <mxGeometry relative="1" as="geometry" />
        </mxCell>
        <mxCell id="kijJJAyMLJ-70Bdnw-Ao-92" value="Show results" style="rounded=0;whiteSpace=wrap;html=1;" vertex="1" parent="1">
          <mxGeometry x="840" y="383" width="120" height="30" as="geometry" />
        </mxCell>
        <mxCell id="kijJJAyMLJ-70Bdnw-Ao-96" value="True" style="text;html=1;align=center;verticalAlign=middle;resizable=0;points=[];autosize=1;strokeColor=none;fillColor=none;" vertex="1" parent="1">
          <mxGeometry x="855" y="418" width="50" height="30" as="geometry" />
        </mxCell>
        <mxCell id="kijJJAyMLJ-70Bdnw-Ao-102" style="edgeStyle=orthogonalEdgeStyle;rounded=0;orthogonalLoop=1;jettySize=auto;html=1;exitX=0.5;exitY=1;exitDx=0;exitDy=0;entryX=1;entryY=0.5;entryDx=0;entryDy=0;" edge="1" parent="1" source="kijJJAyMLJ-70Bdnw-Ao-99" target="kijJJAyMLJ-70Bdnw-Ao-86">
          <mxGeometry relative="1" as="geometry" />
        </mxCell>
        <mxCell id="kijJJAyMLJ-70Bdnw-Ao-99" value="Highlight unanswered questions" style="rounded=0;whiteSpace=wrap;html=1;" vertex="1" parent="1">
          <mxGeometry x="970" y="440" width="120" height="50" as="geometry" />
        </mxCell>
        <mxCell id="kijJJAyMLJ-70Bdnw-Ao-100" style="edgeStyle=orthogonalEdgeStyle;rounded=0;orthogonalLoop=1;jettySize=auto;html=1;exitX=1;exitY=0.5;exitDx=0;exitDy=0;entryX=-0.057;entryY=0.498;entryDx=0;entryDy=0;entryPerimeter=0;" edge="1" parent="1" source="kijJJAyMLJ-70Bdnw-Ao-87" target="kijJJAyMLJ-70Bdnw-Ao-99">
          <mxGeometry relative="1" as="geometry" />
        </mxCell>
        <mxCell id="kijJJAyMLJ-70Bdnw-Ao-101" value="False" style="edgeLabel;html=1;align=center;verticalAlign=middle;resizable=0;points=[];" vertex="1" connectable="0" parent="kijJJAyMLJ-70Bdnw-Ao-100">
          <mxGeometry x="-0.4132" y="-4" relative="1" as="geometry">
            <mxPoint x="7" y="-8" as="offset" />
          </mxGeometry>
        </mxCell>
        <mxCell id="kijJJAyMLJ-70Bdnw-Ao-110" style="edgeStyle=orthogonalEdgeStyle;rounded=0;orthogonalLoop=1;jettySize=auto;html=1;exitX=0.5;exitY=0;exitDx=0;exitDy=0;entryX=1;entryY=0.5;entryDx=0;entryDy=0;" edge="1" parent="1" source="kijJJAyMLJ-70Bdnw-Ao-103" target="kijJJAyMLJ-70Bdnw-Ao-43">
          <mxGeometry relative="1" as="geometry" />
        </mxCell>
        <mxCell id="kijJJAyMLJ-70Bdnw-Ao-111" value="Text" style="edgeLabel;html=1;align=center;verticalAlign=middle;resizable=0;points=[];" vertex="1" connectable="0" parent="kijJJAyMLJ-70Bdnw-Ao-110">
          <mxGeometry x="-0.8596" y="1" relative="1" as="geometry">
            <mxPoint as="offset" />
          </mxGeometry>
        </mxCell>
        <mxCell id="kijJJAyMLJ-70Bdnw-Ao-103" value="" style="rhombus;whiteSpace=wrap;html=1;" vertex="1" parent="1">
          <mxGeometry x="877.5" y="310" width="45" height="30" as="geometry" />
        </mxCell>
        <mxCell id="kijJJAyMLJ-70Bdnw-Ao-105" value="User selects?" style="text;html=1;align=center;verticalAlign=middle;resizable=0;points=[];autosize=1;strokeColor=none;fillColor=none;" vertex="1" parent="1">
          <mxGeometry x="910" y="310" width="100" height="30" as="geometry" />
        </mxCell>
        <mxCell id="kijJJAyMLJ-70Bdnw-Ao-108" style="edgeStyle=orthogonalEdgeStyle;rounded=0;orthogonalLoop=1;jettySize=auto;html=1;exitX=0;exitY=0.5;exitDx=0;exitDy=0;entryX=0.674;entryY=-0.026;entryDx=0;entryDy=0;entryPerimeter=0;" edge="1" parent="1" source="kijJJAyMLJ-70Bdnw-Ao-103" target="kijJJAyMLJ-70Bdnw-Ao-82">
          <mxGeometry relative="1" as="geometry" />
        </mxCell>
        <mxCell id="kijJJAyMLJ-70Bdnw-Ao-109" value="Retake" style="edgeLabel;html=1;align=center;verticalAlign=middle;resizable=0;points=[];" vertex="1" connectable="0" parent="kijJJAyMLJ-70Bdnw-Ao-108">
          <mxGeometry x="-0.6059" y="1" relative="1" as="geometry">
            <mxPoint as="offset" />
          </mxGeometry>
        </mxCell>
      </root>
    </mxGraphModel>
  </diagram>
</mxfile>
